<svg xmlns="http://www.w3.org/2000/svg" viewBox="0 0 24 24"><path fill="currentColor" d="M20.52 3.48A11.86 11.86 0 0 0 12.08 0C5.52 0 .18 5.34.18 11.91c0 2.1.55 4.15 1.6 5.96L.08 24l6.28-1.65a11.87 11.87 0 0 0 5.72 1.46h.01c6.56 0 11.9-5.34 11.91-11.9a11.85 11.85 0 0 0-3.48-8.43ZM12.09 21.8h-.01a9.86 9.86 0 0 1-5.03-1.38l-.36-.22-3.72.98.99-3.63-.24-.37a9.86 9.86 0 0 1-1.51-5.27c0-5.45 4.43-9.88 9.88-9.88a9.8 9.8 0 0 1 6.99 2.9 9.81 9.81 0 0 1 2.89 6.99c0 5.44-4.44 9.88-9.88 9.88Zm5.42-7.4c-.3-.15-1.76-.87-2.03-.97-.27-.1-.47-.15-.67.15-.2.29-.77.96-.95 1.16-.17.2-.35.22-.65.07-.3-.15-1.26-.46-2.39-1.48a8.95 8.95 0 0 1-1.65-2.05c-.17-.3-.02-.46.13-.61.14-.13.3-.35.45-.52.15-.17.2-.3.3-.5.1-.2.05-.37-.02-.52-.08-.15-.67-1.6-.92-2.2-.24-.58-.49-.5-.67-.5h-.57c-.2 0-.52.07-.8.37-.27.3-1.04 1.02-1.04 2.48 0 1.46 1.07 2.88 1.22 3.08.15.2 2.1 3.2 5.08 4.49.71.3 1.26.49 1.69.63.71.22 1.36.19 1.87.12.57-.09 1.76-.72 2-1.42.25-.7.25-1.3.18-1.42-.08-.13-.28-.2-.58-.35Z"/></svg>